<svg width="410" height="103" fill="none" xmlns="http://www.w3.org/2000/svg"><path d="M38.513 101.729c.18-1.532.361-3.02.541-4.463l.541-4.328.812-7.574c.09-1.262.18-2.434.27-3.516.09-1.082.18-2.074.27-2.976H29.182l-5.41 19.476c-1.983.27-4.328.586-7.033.947-2.705.27-5.23.541-7.574.811l-4.328.541c-1.352.181-2.75.361-4.193.541l10.685-35.435c1.263-4.238 2.705-9.062 4.328-14.472 1.623-5.41 3.246-10.955 4.87-16.636 1.712-5.68 3.29-11 4.733-15.959 1.533-5.05 2.75-9.287 3.652-12.714 6.131-.45 12.352-.991 18.664-1.623A238.691 238.691 0 0 0 66.24 1.78c-.451 5.05-.902 10.776-1.353 17.177-.36 6.312-.721 12.85-1.082 19.612-.27 6.762-.586 13.435-.947 20.017-.18 6.221-.405 12.668-.676 19.34-.27 6.583-.54 13.345-.811 20.288l-4.058.541-4.057.541c-2.255.36-4.734.766-7.44 1.217l-7.303 1.217Zm-6.086-36.382c.541 0 1.533-.045 2.976-.135 1.532-.09 2.975-.18 4.328-.27 1.352-.09 2.164-.136 2.434-.136 0-1.172.18-3.561.541-7.168.36-3.607.721-7.394 1.082-11.361.18-2.344.36-4.734.541-7.168.27-2.525.541-5.095.812-7.71l.811-11.766-2.029.135-3.11 11.631-8.386 33.948Zm31.191 36.924c.992-7.124 2.029-14.292 3.11-21.505a1649.33 1649.33 0 0 1 3.517-20.829 1459.345 1459.345 0 0 1 3.517-18.258 3174.41 3174.41 0 0 0 3.516-17.854c1.172-6.04 2.39-12.127 3.652-18.258L104.6 2.456l-7.033 30.567c-1.263 5.32-2.57 11.045-3.922 17.176a1010.222 1010.222 0 0 0-3.517 17.583c-1.082 5.68-1.938 10.73-2.57 15.148 2.254-.18 4.644-.27 7.169-.27 2.615-.09 4.914-.136 6.897-.136.091 2.074.271 4.283.541 6.627.271 2.254.541 4.238.812 5.951.361 1.623.541 2.525.541 2.705h-1.082c-.271 0-.586-.045-.947-.135h-2.164c-3.516 0-7.439.18-11.767.541-4.237.27-8.475.766-12.713 1.488-4.148.631-7.89 1.487-11.226 2.57Zm74.22-.542c.18-1.532.36-3.02.541-4.463l.541-4.328.811-7.574c.09-1.262.18-2.434.271-3.516.09-1.082.18-2.074.27-2.976h-11.767l-5.41 19.476c-1.983.27-4.328.586-7.033.947-2.705.27-5.229.541-7.574.811l-4.328.541c-1.352.181-2.75.361-4.192.541l10.684-35.435c1.263-4.238 2.705-9.062 4.328-14.472 1.623-5.41 3.246-10.955 4.869-16.636 1.714-5.68 3.291-11 4.734-15.959 1.533-5.05 2.75-9.287 3.652-12.714 6.131-.45 12.353-.991 18.664-1.623a238.691 238.691 0 0 0 18.665-2.57 928.583 928.583 0 0 0-1.353 17.177c-.36 6.312-.721 12.85-1.082 19.612a1360.09 1360.09 0 0 1-.946 20.017c-.181 6.221-.406 12.668-.677 19.34-.27 6.583-.541 13.345-.811 20.288l-4.058.541-4.057.541c-2.254.36-4.734.766-7.439 1.217l-7.303 1.217Zm-6.087-36.382c.541 0 1.533-.045 2.976-.135 1.533-.09 2.975-.18 4.328-.27 1.352-.09 2.164-.136 2.434-.136 0-1.172.181-3.561.541-7.168.361-3.607.722-7.394 1.082-11.361.181-2.344.361-4.734.541-7.168.271-2.525.541-5.095.812-7.71l.811-11.766-2.028.135-3.111 11.631-8.386 33.948Zm30.245 37.329a4839.27 4839.27 0 0 0 7.709-37.734 5512.91 5512.91 0 0 1 5.816-33.001c1.893-10.55 3.246-20.243 4.057-29.08.631.09 1.172.136 1.623.136h4.193c2.344 0 4.959-.045 7.844-.135 2.886-.18 5.546-.316 7.98-.406a418.986 418.986 0 0 1 1.758 9.332 186.893 186.893 0 0 1 1.623 8.927c.451 2.524.947 5.14 1.488 7.844.541 2.615 1.082 5.275 1.623 7.98.451 2.705.902 5.23 1.353 7.574.541 2.254.991 4.328 1.352 6.221a593.36 593.36 0 0 0 2.976-15.689c.991-5.139 1.938-9.783 2.84-13.93l3.922-18.124L236.654.562a1178.51 1178.51 0 0 0-4.328 20.153 1404.161 1404.161 0 0 0-3.787 19.07c-2.255 11-4.238 21.37-5.951 31.108-1.714 9.737-3.021 18.213-3.923 25.427.992 0 .812.135-.541.405-1.262.18-3.155.496-5.68.947-2.525.36-5.23.857-8.115 1.488-2.885.63-5.455 1.397-7.709 2.299-.271-3.607-.541-7.123-.812-10.55-.27-3.426-.586-6.762-.947-10.008a527.272 527.272 0 0 0-1.893-17.177c-.721-5.68-1.443-10.189-2.164-13.525a887.974 887.974 0 0 1-2.299 13.66 506.85 506.85 0 0 1-2.976 15.284l-3.787 18.935-19.746 4.598Zm60.071-.541a2968.977 2968.977 0 0 0 7.709-35.706 630.742 630.742 0 0 0 2.975-15.013c1.082-5.41 2.164-10.865 3.246-16.365 1.082-5.5 2.074-10.685 2.976-15.554.902-4.959 1.623-9.287 2.164-12.983 3.607-1.083 7.484-2.074 11.631-2.976 4.238-.902 8.025-1.352 11.361-1.352 5.41 0 9.693 1.172 12.849 3.516 3.156 2.254 5.41 5.32 6.763 9.197 1.352 3.877 2.028 8.115 2.028 12.714 0 5.049-.946 9.918-2.84 14.606-1.803 4.599-4.283 8.747-7.439 12.444-3.065 3.696-6.627 6.627-10.684 8.79-3.968 2.165-8.115 3.247-12.443 3.247h-1.488a177.439 177.439 0 0 0-2.029 10.008 375.67 375.67 0 0 0-1.623 10.009 113.459 113.459 0 0 0-.947 5.41l-.811 5.41-23.398 4.598Zm31.513-49.637c2.074-.54 4.148-1.893 6.221-4.057 2.074-2.254 3.787-5.094 5.14-8.52 1.352-3.427 2.029-7.169 2.029-11.226 0-3.337-.767-5.861-2.3-7.575-1.442-1.713-3.065-2.57-4.869-2.57a889.27 889.27 0 0 1-2.975 16.907c-.992 5.32-2.074 11-3.246 17.041Zm20.68 49.637 7.033-35.165a1198.427 1198.427 0 0 1 3.517-20.017 964.022 964.022 0 0 0 3.516-20.287c1.173-6.673 2.074-12.94 2.705-18.8 5.14-1.623 10.685-2.795 16.636-3.517a131.008 131.008 0 0 1 17.718-1.217c6.853 0 11.496 1.488 13.931 4.463 2.524 2.976 3.787 6.988 3.787 12.038 0 4.598-1.082 9.242-3.246 13.93-2.164 4.599-5.005 8.792-8.521 12.579-3.426 3.697-7.213 6.627-11.361 8.791a463.439 463.439 0 0 1 5.139 11.902 556.945 556.945 0 0 1 5.275 12.172l2.705 6.763a213.744 213.744 0 0 1 2.84 6.763l-20.963 7.303-4.869-16.23a837.272 837.272 0 0 1-3.787-12.984c-1.082-4.238-1.713-7.213-1.894-8.926l-1.758.54c-.271 1.443-.586 3.021-.947 4.734-.27 1.623-.586 3.427-.947 5.41a667.19 667.19 0 0 1-1.082 5.816l-1.082 5.41-2.434 12.849-21.911 5.68Zm31.784-58.698c1.623-.18 3.607-.857 5.951-2.029 2.435-1.262 4.824-2.795 7.168-4.599 2.435-1.803 4.464-3.651 6.087-5.545 1.623-1.893 2.434-3.561 2.434-5.004 0-1.803-1.082-2.976-3.246-3.517-2.074-.63-4.824-.946-8.25-.946h-2.976a9.093 9.093 0 0 1-1.487.135h-1.353l-4.328 21.505Zm52.252 59.104c-5.951 0-10.82-2.299-14.607-6.898-3.787-4.598-5.68-11.541-5.68-20.828 0-5.14.631-10.55 1.893-16.23a103.273 103.273 0 0 1 5.275-16.771c2.254-5.5 4.869-10.595 7.844-15.284 4.779-7.574 10.279-13.75 16.501-18.529 6.221-4.779 12.759-7.168 19.611-7.168 5.41 0 9.558 1.398 12.443 4.193 2.976 2.705 5.05 6.221 6.222 10.55 1.172 4.237 1.758 8.655 1.758 13.254 0 10.73-1.668 20.738-5.004 30.025-3.246 9.197-7.484 16.997-12.714 23.399-5.229 6.582-10.82 11.631-16.771 15.147-5.861 3.427-11.451 5.14-16.771 5.14Zm7.304-22.316c4.057 0 7.619-1.353 10.684-4.058 3.156-2.705 5.816-6.131 7.98-10.279a58.514 58.514 0 0 0 4.869-13.254c1.082-4.599 1.623-8.746 1.623-12.443 0-1.443-.135-2.976-.406-4.599-.27-1.713-.856-3.2-1.758-4.463-.901-1.262-2.299-1.894-4.193-1.894-4.147 0-7.889 1.533-11.225 4.599-3.336 2.975-6.132 6.762-8.386 11.361-2.254 4.689-3.922 9.287-5.004 13.795-1.082 4.509-1.623 8.611-1.623 12.308 0 1.894.676 3.877 2.029 5.951 1.352 1.984 3.156 2.976 5.41 2.976Z" fill="#000000"/></svg>